<?xml version="1.0" standalone="no"?>
<!DOCTYPE svg PUBLIC "-//W3C//DTD SVG 20010904//EN"
 "http://www.w3.org/TR/2001/REC-SVG-20010904/DTD/svg10.dtd">
<svg version="1.0" xmlns="http://www.w3.org/2000/svg"
 width="1024.000000pt" height="1024.000000pt" viewBox="0 0 1024.000000 1024.000000"
 preserveAspectRatio="xMidYMid meet">

<g transform="translate(0.000000,1024.000000) scale(0.100000,-0.100000)"
fill="#000000" stroke="none">
<path d="M3246 9140 c-46 -15 -104 -60 -141 -110 -53 -72 -116 -249 -205 -574
-50 -183 -73 -292 -95 -461 -39 -292 6 -588 135 -889 54 -127 98 -200 178
-294 65 -77 122 -159 122 -176 0 -6 -20 -24 -45 -39 -92 -59 -157 -123 -228
-227 -39 -58 -103 -146 -142 -195 -96 -124 -166 -230 -281 -430 -196 -340
-340 -706 -455 -1160 -110 -432 -166 -848 -189 -1401 -13 -313 -13 -1738 0
-1786 13 -46 77 -105 125 -114 79 -15 165 42 183 121 5 22 7 353 4 750 -3 391
-1 849 3 1019 l7 309 52 -6 c67 -7 332 -93 516 -169 80 -33 208 -83 285 -113
77 -29 182 -73 234 -99 79 -38 104 -46 152 -46 47 0 63 5 89 26 43 36 61 77
62 135 0 95 -49 141 -237 221 -315 134 -575 233 -670 257 -71 17 -402 150
-420 168 -17 16 -17 17 21 242 13 79 24 165 24 192 0 33 5 49 16 53 27 11 100
-13 200 -64 54 -28 128 -60 164 -70 103 -32 246 -87 360 -140 218 -101 403
-172 434 -166 137 28 183 206 74 290 -19 14 -151 74 -294 132 -342 140 -382
156 -532 208 -70 25 -166 61 -215 81 l-87 37 6 37 c7 40 131 426 145 453 5 10
19 18 31 18 11 0 98 -38 192 -85 94 -46 231 -109 304 -140 73 -31 196 -87 273
-125 146 -72 180 -80 229 -55 51 26 70 61 70 129 0 104 -14 117 -262 239 -297
147 -520 250 -608 282 -41 16 -77 29 -79 31 -6 6 48 113 117 230 38 66 79 138
91 162 17 34 26 42 49 42 40 -1 94 -23 154 -62 93 -62 308 -181 498 -276 216
-109 269 -122 330 -80 44 30 64 84 55 150 -11 81 -37 106 -173 175 -68 34
-153 79 -190 101 -37 22 -157 86 -267 142 -110 56 -202 104 -203 105 -11 10
18 54 78 119 90 97 103 124 98 197 l-4 57 140 -108 c179 -136 241 -174 445
-269 254 -119 285 -129 536 -182 129 -27 177 -32 347 -36 232 -6 329 3 525 51
347 86 615 216 913 444 124 94 119 93 113 18 -7 -85 18 -139 84 -181 46 -29
93 -85 93 -110 0 -26 -565 -337 -720 -395 -103 -40 -146 -96 -138 -182 6 -57
33 -91 93 -119 54 -25 90 -24 165 7 140 57 599 302 691 370 25 18 58 38 73 44
35 13 44 4 162 -184 93 -147 122 -210 111 -239 -9 -25 -210 -122 -552 -268
-77 -33 -153 -66 -170 -74 -16 -7 -55 -23 -85 -35 -30 -12 -63 -29 -74 -38
-54 -49 -73 -159 -37 -218 10 -17 36 -41 56 -54 61 -38 98 -31 248 43 72 36
180 86 239 111 134 56 221 100 374 187 66 38 127 69 136 69 23 0 34 -18 56
-95 12 -38 34 -109 51 -157 34 -102 55 -193 48 -213 -10 -24 -150 -107 -292
-173 -77 -35 -232 -107 -345 -159 -113 -53 -249 -110 -303 -129 -151 -51 -205
-93 -228 -176 -21 -79 13 -148 92 -188 62 -32 110 -26 203 24 45 24 149 72
231 106 83 34 206 91 275 125 69 34 143 68 165 75 22 7 93 39 157 71 139 70
158 73 158 26 0 -18 11 -91 25 -162 14 -72 28 -160 31 -196 l7 -67 -78 -45
c-43 -26 -123 -65 -178 -88 -55 -24 -139 -62 -186 -87 -81 -41 -204 -90 -331
-132 -54 -18 -237 -89 -295 -115 -16 -8 -60 -27 -96 -43 -162 -72 -196 -219
-71 -307 65 -45 112 -41 231 19 52 26 137 65 190 86 53 21 150 61 216 90 66
29 183 76 260 107 209 81 266 105 310 130 59 33 72 30 80 -19 4 -24 8 -499 10
-1056 l4 -1013 21 -35 c44 -71 141 -86 221 -35 89 56 84 6 87 841 3 734 -3
996 -34 1380 -20 250 -60 508 -114 740 -11 47 -38 168 -60 270 -64 293 -138
535 -230 757 -107 256 -363 706 -497 871 -34 43 -101 130 -148 194 -47 65
-113 146 -147 180 -88 93 -93 100 -74 136 8 16 32 49 52 73 55 65 175 252 221
344 140 279 196 659 143 971 -25 146 -91 385 -175 632 -98 290 -134 357 -220
408 -61 36 -156 44 -222 19 -57 -21 -266 -125 -452 -224 l-134 -72 -91 39
c-285 123 -604 184 -876 169 -238 -14 -562 -92 -731 -178 l-60 -30 -95 46
c-52 25 -97 45 -98 45 -2 0 -68 34 -147 76 -198 105 -271 134 -349 139 -36 3
-78 0 -94 -5z m3262 -617 c108 -328 147 -478 163 -622 36 -339 -91 -730 -341
-1046 -108 -136 -308 -305 -460 -388 -237 -131 -546 -229 -812 -259 -174 -19
-451 14 -683 83 -89 26 -297 110 -387 155 -97 49 -280 172 -358 240 -253 222
-447 561 -506 884 -23 124 -23 334 0 450 32 160 161 573 227 726 l18 43 38
-15 c88 -37 238 -116 303 -161 123 -85 173 -113 202 -113 15 0 83 24 150 54
183 79 164 82 172 -21 17 -209 34 -272 91 -322 62 -55 151 -37 209 42 20 27
21 39 18 242 l-3 213 28 6 c68 14 157 25 162 20 3 -2 8 -105 11 -228 5 -220 6
-224 32 -263 63 -95 180 -90 246 9 27 41 27 43 32 254 3 117 8 216 13 220 8 8
173 -9 183 -19 4 -3 1 -91 -5 -194 -11 -193 -8 -227 24 -277 40 -60 133 -75
198 -31 59 40 75 85 93 253 9 81 18 149 21 152 4 5 153 -46 265 -90 l57 -22
63 49 c81 64 228 154 342 209 49 24 92 44 96 44 3 0 47 -125 98 -277z"/>
<path d="M3794 8111 c-185 -84 -223 -324 -71 -457 74 -65 162 -81 256 -45 75
28 117 66 152 137 29 58 31 70 27 133 -8 107 -64 187 -163 232 -53 24 -147 24
-201 0z"/>
<path d="M5820 8123 c-48 -18 -123 -80 -148 -122 -24 -40 -27 -56 -27 -131 0
-76 3 -90 29 -135 76 -131 187 -174 318 -125 110 41 167 116 176 230 3 53 0
76 -18 118 -25 59 -91 124 -153 153 -41 18 -142 25 -177 12z"/>
<path d="M4599 7745 c-86 -47 -80 -175 13 -261 18 -17 57 -48 87 -69 l54 -39
-5 -95 c-5 -104 -18 -139 -65 -182 -58 -54 -91 -60 -153 -29 -55 28 -86 74
-101 150 -20 110 -52 150 -118 150 -28 0 -43 -9 -82 -49 -58 -60 -67 -95 -45
-180 36 -140 124 -260 228 -310 105 -50 246 -49 353 4 55 27 135 99 135 122 0
7 30 -18 68 -56 83 -86 136 -106 271 -99 111 5 192 41 270 119 108 109 169
295 126 380 -21 41 -71 69 -121 69 -72 0 -98 -33 -138 -180 -43 -155 -218
-176 -286 -35 -16 33 -24 72 -28 135 l-5 88 39 20 c100 52 184 160 184 239 0
48 -32 93 -80 113 -35 14 -63 11 -145 -20 -37 -14 -93 -24 -145 -27 -79 -5
-92 -3 -163 26 -87 34 -110 37 -148 16z"/>
<path d="M3534 7446 c-76 -33 -99 -123 -44 -169 104 -88 259 2 204 118 -28 60
-93 80 -160 51z"/>
<path d="M6119 7431 c-24 -24 -29 -38 -29 -76 0 -40 5 -52 34 -81 28 -28 42
-34 75 -34 103 0 165 94 110 164 -50 63 -141 76 -190 27z"/>
<path d="M2038 8273 c-68 -70 -77 -142 -25 -199 29 -31 49 -40 187 -80 85 -24
181 -53 212 -64 74 -25 124 -25 166 0 81 50 81 162 -1 224 -67 51 -375 156
-458 156 -39 0 -50 -5 -81 -37z"/>
<path d="M7635 8303 c-11 -3 -80 -25 -153 -49 -233 -77 -283 -114 -290 -211
-3 -49 0 -63 19 -87 26 -33 75 -56 118 -56 34 0 394 123 438 150 33 20 63 74
63 114 0 92 -98 162 -195 139z"/>
<path d="M7300 7729 c-64 -27 -108 -101 -95 -159 8 -38 48 -86 87 -106 19 -10
77 -19 152 -24 322 -23 298 -23 334 -1 92 58 95 189 7 247 -41 27 -440 63
-485 43z"/>
<path d="M2265 7724 c-110 -9 -220 -26 -245 -39 -103 -53 -106 -176 -7 -249
33 -24 100 -25 327 -6 145 13 201 30 231 71 47 66 33 142 -37 196 -33 25 -45
27 -128 29 -50 1 -113 0 -141 -2z"/>
<path d="M7579 6976 c-150 -43 -289 -165 -363 -318 -52 -107 -84 -220 -93
-330 l-6 -77 76 -113 c42 -62 96 -135 121 -163 l44 -49 15 37 c9 20 23 101 32
180 24 225 66 348 144 426 130 130 314 105 406 -54 26 -46 110 -299 119 -362
l6 -43 -47 6 c-27 3 -55 7 -63 8 -9 2 -99 0 -200 -4 -197 -7 -231 -15 -264
-62 -20 -29 -21 -120 -1 -157 26 -51 61 -57 186 -33 120 24 416 58 424 50 3
-2 8 -32 11 -66 8 -72 25 -63 -176 -87 -241 -29 -315 -52 -373 -113 -25 -26
-28 -35 -22 -64 16 -74 79 -140 145 -151 19 -4 112 0 207 7 94 7 185 11 202 8
30 -4 31 -6 31 -54 0 -205 -83 -612 -174 -856 -54 -146 -56 -169 -22 -364 26
-146 48 -201 84 -206 109 -16 354 664 412 1141 40 332 24 747 -40 1037 -32
142 -109 379 -157 479 -74 155 -223 287 -380 337 -67 21 -227 27 -284 10z"/>
<path d="M4359 5556 c-14 -8 -38 -34 -54 -57 -41 -59 -48 -159 -14 -218 53
-95 157 -92 219 6 63 99 62 209 -2 254 -38 28 -113 35 -149 15z"/>
<path d="M4865 5563 c-33 -9 -74 -43 -90 -73 -18 -35 -21 -224 -4 -284 6 -22
24 -52 39 -68 23 -23 37 -28 76 -28 106 0 144 64 144 239 -1 140 -34 203 -116
215 -16 2 -38 2 -49 -1z"/>
<path d="M5330 5563 c-58 -18 -110 -82 -110 -136 0 -44 41 -140 74 -173 87
-88 240 -23 238 101 -1 98 -72 188 -162 208 -14 3 -32 3 -40 0z"/>
<path d="M4185 4504 c-44 -23 -93 -73 -105 -108 -6 -21 -9 -531 -7 -1501 l2
-1470 21 -46 c42 -91 137 -118 228 -65 86 50 79 -97 78 1586 0 1686 8 1535
-80 1591 -51 32 -92 37 -137 13z"/>
<path d="M5476 4497 c-42 -26 -96 -98 -97 -131 0 -12 -1 -676 -1 -1476 -1
-1124 1 -1463 11 -1492 15 -47 79 -105 125 -113 19 -4 51 -2 72 5 48 16 111
74 118 108 3 15 8 691 10 1504 l5 1476 -29 45 c-21 33 -43 51 -83 71 -68 32
-82 32 -131 3z"/>
<path d="M6760 2632 c-64 -34 -98 -142 -69 -219 24 -64 112 -122 165 -109 43
11 110 84 124 136 35 132 -103 253 -220 192z"/>
<path d="M2856 2610 c-70 -62 -89 -171 -40 -230 57 -67 136 -85 198 -45 40 27
80 117 73 167 -16 116 -150 179 -231 108z"/>
<path d="M3503 2504 c-49 -24 -111 -97 -119 -138 -17 -91 28 -186 104 -220 54
-24 97 -16 150 29 79 68 95 188 35 263 -54 67 -118 92 -170 66z"/>
<path d="M6159 2447 c-42 -27 -79 -98 -79 -150 0 -73 70 -164 137 -178 91 -18
183 83 183 201 0 41 -5 55 -31 85 -18 20 -45 43 -60 51 -43 22 -110 18 -150
-9z"/>
</g>
</svg>
